<svg width="273" height="108" viewBox="0 0 273 108" fill="none" xmlns="http://www.w3.org/2000/svg">
<g clip-path="url(#clip0_441_85)">
<path d="M51.0312 34.5781H68.6484V92H57.5938V43.9922H57.4375L46.5391 92H34.8594L24.3906 43.9922H24.2344V92H13.1797V34.5781H30.7188L40.7969 79.2656H40.9531L51.0312 34.5781ZM120.484 67.1172H92.3203V81.6094H124.312V92H80.7969V34.5781H122.945V44.4609H92.3203V57.1953H120.484V67.1172ZM167.75 92V66.3359H145.211V92H133.18V34.5781H145.211V56.4141H167.75V34.5781H179.742V92H167.75ZM228.414 34.1094C230.628 33.4583 233.036 33.1328 235.641 33.1328C237.385 33.1328 239.247 33.3151 241.227 33.6797C243.232 34.0182 245.198 34.6302 247.125 35.5156C249.078 36.375 250.94 37.5339 252.711 38.9922C254.508 40.4505 256.083 42.2865 257.438 44.5C258.792 46.6875 259.872 49.2917 260.68 52.3125C261.487 55.3073 261.891 58.7969 261.891 62.7812C261.891 67.4948 261.266 71.7396 260.016 75.5156C258.766 79.2917 256.982 82.5078 254.664 85.1641C252.372 87.8203 249.612 89.8646 246.383 91.2969C243.154 92.7292 239.573 93.4453 235.641 93.4453C231.474 93.4453 227.854 92.7682 224.781 91.4141C221.734 90.0599 219.169 88.224 217.086 85.9062C215.029 83.5625 213.414 80.8542 212.242 77.7812C211.096 74.7083 210.341 71.4531 209.977 68.0156H202.516V92H190.992V34.5781H202.516V58.5625H209.977C210.159 56.401 210.562 54.2656 211.188 52.1562C211.812 50.0469 212.633 48.0547 213.648 46.1797C214.69 44.2786 215.927 42.5339 217.359 40.9453C218.818 39.3568 220.458 37.9896 222.281 36.8438C224.13 35.6719 226.174 34.7604 228.414 34.1094ZM221.5 63.2109C221.5 66.6224 221.839 69.5781 222.516 72.0781C223.193 74.5781 224.143 76.6484 225.367 78.2891C226.617 79.9036 228.115 81.1016 229.859 81.8828C231.604 82.6641 233.531 83.0547 235.641 83.0547C237.776 83.0547 239.716 82.6641 241.461 81.8828C243.232 81.1016 244.742 79.9036 245.992 78.2891C247.242 76.6484 248.206 74.5781 248.883 72.0781C249.56 69.5781 249.898 66.6224 249.898 63.2109C249.898 59.8255 249.56 56.8958 248.883 54.4219C248.206 51.9479 247.242 49.9036 245.992 48.2891C244.742 46.6745 243.232 45.4766 241.461 44.6953C239.716 43.9141 237.776 43.5234 235.641 43.5234C233.531 43.5234 231.604 43.9141 229.859 44.6953C228.115 45.4766 226.617 46.6745 225.367 48.2891C224.143 49.9036 223.193 51.9479 222.516 54.4219C221.839 56.8958 221.5 59.8255 221.5 63.2109Z" fill="url(#paint0_linear_441_85)"/>
</g>
<defs>
<linearGradient id="paint0_linear_441_85" x1="140.5" y1="4.5" x2="137" y2="117" gradientUnits="userSpaceOnUse">
<stop stop-color="#5CC4FE"/>
<stop offset="1" stop-color="white"/>
</linearGradient>
<clipPath id="clip0_441_85">
<rect width="273" height="108" fill="white"/>
</clipPath>
</defs>
</svg>
